<svg width="1728" height="910" viewBox="0 0 1728 910" fill="none" xmlns="http://www.w3.org/2000/svg">
  <defs>
    <filter id="surface-shadow" x="610" y="24" width="1090" height="866" filterUnits="userSpaceOnUse" color-interpolation-filters="sRGB">
      <feDropShadow dx="0" dy="18" stdDeviation="26" flood-color="#1C2438" flood-opacity="0.12"/>
    </filter>
  </defs>

  <rect width="1728" height="910" fill="#F7F8FB"/>
  <circle cx="1640" cy="44" r="242" fill="#EEF1FC"/>
  <circle cx="40" cy="870" r="198" fill="#F0F2F8"/>

  <g transform="translate(104 104)">
    <rect width="78" height="78" rx="22" fill="#315CC8"/>
    <path d="M19 31C28 21 38 21 47 31C56 41 66 41 73 31" stroke="white" stroke-width="6" stroke-linecap="round"/>
    <path d="M19 48C28 38 38 38 47 48C56 58 66 58 73 48" stroke="white" stroke-width="6" stroke-linecap="round"/>
  </g>

  <text x="104" y="336" fill="#1B2030" font-family="Avenir Next, PingFang SC, Noto Sans SC, sans-serif" font-size="96" font-weight="700" letter-spacing="-3">清流阅读</text>
  <text x="110" y="411" fill="#315CC8" font-family="Avenir Next, PingFang SC, Noto Sans SC, sans-serif" font-size="30" font-weight="700" letter-spacing="4">RSS · X · 公众号</text>
  <rect x="106" y="462" width="76" height="5" rx="2.5" fill="#315CC8"/>
  <text x="106" y="536" fill="#50586C" font-family="Avenir Next, PingFang SC, Noto Sans SC, sans-serif" font-size="29" font-weight="500">把每天的新内容，排成一条读得完的清流。</text>
  <text x="106" y="588" fill="#7B8293" font-family="Avenir Next, PingFang SC, Noto Sans SC, sans-serif" font-size="24" font-weight="500">阅读 · 发现 · 长期关注</text>

  <g filter="url(#surface-shadow)">
    <rect x="666" y="70" width="962" height="770" rx="26" fill="white"/>
  </g>

  <path d="M666 96C666 81.6406 677.641 70 692 70H908V840H692C677.641 840 666 828.359 666 814V96Z" fill="#F0F2F7"/>
  <rect x="908" y="70" width="312" height="770" fill="#F8F9FB"/>
  <path d="M908 70V840M1220 70V840" stroke="#DDE1EA" stroke-width="2"/>

  <g transform="translate(704 112)">
    <rect width="46" height="46" rx="12" fill="#315CC8"/>
    <path d="M10 19C15 14 20 14 25 19C30 24 35 24 39 19M10 28C15 23 20 23 25 28C30 33 35 33 39 28" stroke="white" stroke-width="3" stroke-linecap="round"/>
    <text x="62" y="21" fill="#1B2030" font-family="Avenir Next, PingFang SC, sans-serif" font-size="20" font-weight="700">清流阅读</text>
    <text x="62" y="43" fill="#727A8D" font-family="Avenir Next, PingFang SC, sans-serif" font-size="13" font-weight="500">RSS · X · 公众号</text>
  </g>

  <g transform="translate(686 200)">
    <rect width="202" height="76" rx="12" fill="#E8EDFC"/>
    <rect x="16" y="16" width="44" height="44" rx="10" fill="white"/>
    <path d="M27 29H47M27 37H47M27 45H40" stroke="#315CC8" stroke-width="3" stroke-linecap="round"/>
    <text x="76" y="33" fill="#1B2030" font-family="Avenir Next, PingFang SC, sans-serif" font-size="17" font-weight="700">今日阅读</text>
    <text x="76" y="56" fill="#667086" font-family="Avenir Next, PingFang SC, sans-serif" font-size="13">3 篇待阅读</text>
  </g>

  <g fill="#5C6478" font-family="Avenir Next, PingFang SC, sans-serif" font-size="15" font-weight="600">
    <text x="710" y="326">发现来源</text>
    <text x="710" y="384">排行榜</text>
    <text x="710" y="442">收录新来源</text>
  </g>
  <g fill="#AFB6C5">
    <rect x="686" y="305" width="11" height="11" rx="3"/>
    <rect x="686" y="363" width="11" height="11" rx="3"/>
    <rect x="686" y="421" width="11" height="11" rx="3"/>
  </g>

  <g transform="translate(936 112)">
    <text y="18" fill="#315CC8" font-family="Avenir Next, PingFang SC, sans-serif" font-size="13" font-weight="700">今日阅读</text>
    <text y="54" fill="#1B2030" font-family="Avenir Next, PingFang SC, sans-serif" font-size="25" font-weight="700">今天的更新</text>
    <text x="238" y="54" text-anchor="end" fill="#7B8293" font-family="Avenir Next, PingFang SC, sans-serif" font-size="13">共 3 篇</text>
  </g>

  <g transform="translate(932 196)">
    <rect width="272" height="126" rx="12" fill="white"/>
    <circle cx="28" cy="28" r="18" fill="#E8EDFC"/>
    <rect x="58" y="17" width="104" height="10" rx="5" fill="#3C455A"/>
    <rect x="58" y="37" width="68" height="8" rx="4" fill="#B3B9C6"/>
    <rect x="18" y="70" width="228" height="9" rx="4.5" fill="#6C7487"/>
    <rect x="18" y="90" width="204" height="8" rx="4" fill="#C5CAD4"/>
  </g>
  <g transform="translate(932 336)">
    <rect width="272" height="126" rx="12" fill="#E8EDFC"/>
    <circle cx="28" cy="28" r="18" fill="#315CC8"/>
    <rect x="58" y="17" width="116" height="10" rx="5" fill="#29334A"/>
    <rect x="58" y="37" width="76" height="8" rx="4" fill="#7B8498"/>
    <rect x="18" y="70" width="222" height="9" rx="4.5" fill="#315CC8"/>
    <rect x="18" y="90" width="188" height="8" rx="4" fill="#9EA8C0"/>
  </g>
  <g transform="translate(932 476)">
    <rect width="272" height="126" rx="12" fill="white"/>
    <circle cx="28" cy="28" r="18" fill="#EEF0F5"/>
    <rect x="58" y="17" width="92" height="10" rx="5" fill="#3C455A"/>
    <rect x="58" y="37" width="72" height="8" rx="4" fill="#B3B9C6"/>
    <rect x="18" y="70" width="226" height="9" rx="4.5" fill="#6C7487"/>
    <rect x="18" y="90" width="198" height="8" rx="4" fill="#C5CAD4"/>
  </g>

  <g transform="translate(1266 122)">
    <text y="24" fill="#315CC8" font-family="Avenir Next, PingFang SC, sans-serif" font-size="14" font-weight="700">设计与产品</text>
    <text y="74" fill="#1B2030" font-family="Avenir Next, PingFang SC, sans-serif" font-size="30" font-weight="700">真正好用的阅读工具，</text>
    <text y="114" fill="#1B2030" font-family="Avenir Next, PingFang SC, sans-serif" font-size="30" font-weight="700">应该安静地消失。</text>
    <rect y="150" width="294" height="11" rx="5.5" fill="#B6BBC6"/>
    <rect y="177" width="262" height="11" rx="5.5" fill="#CDD1D9"/>
    <rect y="204" width="306" height="11" rx="5.5" fill="#CDD1D9"/>
    <rect y="231" width="246" height="11" rx="5.5" fill="#CDD1D9"/>
    <rect y="286" width="306" height="9" rx="4.5" fill="#D9DCE3"/>
    <rect y="310" width="288" height="9" rx="4.5" fill="#D9DCE3"/>
    <rect y="334" width="300" height="9" rx="4.5" fill="#D9DCE3"/>
    <rect y="358" width="248" height="9" rx="4.5" fill="#D9DCE3"/>
    <rect y="410" width="210" height="44" rx="10" fill="#315CC8"/>
    <text x="105" y="439" text-anchor="middle" fill="white" font-family="Avenir Next, PingFang SC, sans-serif" font-size="15" font-weight="700">开始今日阅读</text>
  </g>
</svg>
